<svg width="232" height="83" viewBox="0 0 232 83" fill="none" xmlns="http://www.w3.org/2000/svg">
<path d="M30.6446 20.5526L38.6709 18.7805L32.9892 17.1011L26.446 19.8108L30.6446 20.5526ZM40.5576 19.2751L30.7427 21.4283C30.6716 21.449 30.5957 21.449 30.5246 21.4283L24.7339 20.3981C24.6729 20.3881 24.6146 20.3669 24.5624 20.3356C24.5101 20.3043 24.465 20.2634 24.4295 20.2155C24.394 20.1677 24.3689 20.1136 24.3556 20.0566C24.3424 19.9994 24.3412 19.9405 24.3522 19.8829C24.3701 19.8098 24.4062 19.7419 24.4574 19.6846C24.5086 19.6272 24.5734 19.5822 24.6466 19.5532L32.7493 16.2151C32.855 16.1789 32.9708 16.1789 33.0765 16.2151L40.5684 18.4302C40.6635 18.4585 40.7465 18.5148 40.8054 18.5908C40.8643 18.6667 40.896 18.7585 40.896 18.8526C40.896 18.9468 40.8643 19.0385 40.8054 19.1144C40.7465 19.1904 40.6635 19.2467 40.5684 19.2751H40.5576Z" fill="#57585A"/>
<path d="M29.1499 21.1802L25.0495 20.4589L22.3559 24.1989L29.1499 21.1802ZM24.9404 19.542L30.7421 20.5722C30.8632 20.5948 30.9701 20.6614 31.0395 20.7579C31.1089 20.8543 31.1353 20.9727 31.1129 21.0874C31.097 21.1585 31.0628 21.2249 31.0134 21.2805C30.9639 21.3363 30.9007 21.3797 30.8294 21.4068L21.2108 25.6826C21.1552 25.7083 21.0946 25.723 21.0328 25.726C20.971 25.7291 20.9091 25.7202 20.851 25.6999C20.7929 25.6797 20.7398 25.6486 20.6948 25.6084C20.6498 25.5682 20.6139 25.5198 20.5892 25.4662C20.549 25.4004 20.5278 25.3258 20.5278 25.2498C20.5278 25.1738 20.549 25.0992 20.5892 25.0335L24.417 19.7274C24.4728 19.6487 24.5533 19.5885 24.6472 19.5552C24.7411 19.522 24.8436 19.5174 24.9404 19.542Z" fill="#57585A"/>
<path d="M47.5367 16.679L42.3021 18.6573L54.4289 20.0275L47.5367 16.679ZM40.2519 18.4615L47.384 15.7827C47.4451 15.7544 47.5123 15.7398 47.5803 15.7398C47.6484 15.7398 47.7155 15.7544 47.7766 15.7827L57.1116 20.3469C57.2033 20.3974 57.274 20.4759 57.3123 20.5694C57.3506 20.6629 57.3543 20.7658 57.3226 20.8616C57.291 20.9572 57.2259 21.04 57.1381 21.0962C57.0502 21.1525 56.9448 21.1789 56.839 21.1711L40.3392 19.3064C40.2156 19.2909 40.1033 19.2306 40.026 19.1383C39.9486 19.046 39.9123 18.9289 39.9247 18.8118C39.9426 18.7317 39.9821 18.6573 40.0395 18.5959C40.0968 18.5345 40.17 18.4882 40.2519 18.4615Z" fill="#57585A"/>
<path d="M43.0985 19.6358L59.7838 27.8782L56.5776 21.1812L43.0985 19.6358ZM60.5471 29.2279L40.394 19.3061C40.2842 19.2513 40.2019 19.1576 40.1651 19.0457C40.1283 18.9336 40.1401 18.8123 40.1977 18.7085C40.2407 18.626 40.3103 18.5585 40.3966 18.5159C40.4829 18.4732 40.5813 18.4578 40.6776 18.4716L56.9375 20.3158C57.021 20.3272 57.1001 20.3588 57.167 20.4075C57.2338 20.4563 57.2863 20.5205 57.3192 20.594L61.1797 28.6508C61.2069 28.7034 61.2226 28.7606 61.2257 28.819C61.2289 28.8775 61.2195 28.9359 61.1981 28.9908C61.1767 29.0457 61.1437 29.0958 61.1012 29.1384C61.0587 29.1809 61.0074 29.2149 60.9506 29.2382C60.8906 29.2687 60.8238 29.2856 60.7557 29.2874C60.6875 29.2892 60.6198 29.2758 60.558 29.2484L60.5471 29.2279Z" fill="#57585A"/>
<path d="M61.1024 28.5266L61.2225 28.64L60.5671 29.2684L60.436 29.1448L61.1024 28.5266Z" fill="#57585A"/>
<path d="M30.5572 56.3762L32.5201 40.3655L23.8722 45.7333L30.5572 56.3762ZM33.5779 39.5516L31.3423 57.7981C31.3286 57.9139 31.2671 58.0199 31.1711 58.0932C31.0752 58.1665 30.9526 58.2012 30.8298 58.1896C30.7549 58.1819 30.6832 58.1573 30.6205 58.1178C30.5579 58.0783 30.5062 58.0252 30.4699 57.963L22.8361 45.7952C22.8046 45.7451 22.7838 45.6897 22.7749 45.632C22.766 45.5744 22.7693 45.5156 22.7845 45.4591C22.7997 45.4027 22.8265 45.3496 22.8634 45.3029C22.9004 45.2563 22.9467 45.217 22.9997 45.1873L32.8145 39.1394C32.8651 39.1069 32.9221 39.0841 32.9821 39.0727C33.0421 39.0613 33.1039 39.0614 33.1639 39.0729C33.2239 39.0844 33.2808 39.1072 33.3313 39.1399C33.3818 39.1725 33.4249 39.2144 33.458 39.2631C33.5104 39.3507 33.5332 39.4513 33.5234 39.5516H33.5779Z" fill="#57585A"/>
<path d="M43.1532 65.1123L52.0192 45.65L40.9394 46.7627L43.1532 65.1123ZM53.2079 45.31L43.3277 66.9462C43.2795 67.0537 43.1883 67.139 43.0739 67.1834C42.9596 67.2277 42.8313 67.2277 42.717 67.1831C42.6404 67.149 42.5743 67.097 42.5247 67.0321C42.4751 66.9673 42.4437 66.8917 42.4334 66.8123L39.9688 46.4227C39.9612 46.365 39.9661 46.3065 39.983 46.2506C39.9999 46.1948 40.0285 46.1426 40.0672 46.0974C40.1059 46.0523 40.1538 46.0149 40.2081 45.9876C40.2624 45.9602 40.3219 45.9435 40.3832 45.9384L52.7172 44.7021C52.8394 44.6931 52.9606 44.7287 53.0559 44.8015C53.1512 44.8743 53.2134 44.9788 53.2298 45.0936C53.2379 45.1663 53.2305 45.2399 53.2079 45.31Z" fill="#57585A"/>
<path d="M31.4507 57.7354L37.7104 65.5759L39.7824 47.8652L31.4507 57.7354ZM37.6668 67.0081L30.4801 58.0033C30.4137 57.9262 30.3774 57.8297 30.3774 57.7303C30.3774 57.6308 30.4137 57.5344 30.4801 57.4572L40.0332 46.1239C40.0705 46.0778 40.1173 46.0393 40.1707 46.0105C40.2241 45.9818 40.2831 45.9635 40.3442 45.9568C40.4052 45.95 40.4671 45.955 40.5261 45.9713C40.5851 45.9877 40.64 46.015 40.6876 46.0519C40.7507 46.0968 40.8 46.1566 40.8307 46.2253C40.8613 46.2942 40.8721 46.3694 40.862 46.4434L38.4847 66.7711C38.4683 66.8858 38.4061 66.9903 38.3108 67.0632C38.2155 67.136 38.0943 67.1715 37.9721 67.1626C37.8532 67.1426 37.7454 67.0844 37.6668 66.9978V67.0081Z" fill="#57585A"/>
<path d="M23.6528 44.1866L22.8462 44.6385L30.4825 56.8041L31.289 56.3522L23.6528 44.1866Z" fill="#57585A"/>
<path d="M59.4764 37.6457L53.2931 45.208L55.0924 49.3293L59.4764 37.6457ZM52.4098 44.8577L60.5234 34.9463C60.593 34.8691 60.6885 34.8167 60.7941 34.7979C60.8997 34.7793 61.0089 34.7955 61.1034 34.8438C61.198 34.892 61.2721 34.9694 61.3134 35.0632C61.3547 35.1568 61.3607 35.261 61.3304 35.3585L55.5614 50.8129C55.5406 50.8677 55.5087 50.9181 55.4673 50.9612C55.4259 51.0044 55.376 51.0393 55.3203 51.0642C55.2646 51.0891 55.2042 51.1034 55.1427 51.1062C55.0812 51.109 55.0196 51.1004 54.9616 51.0807C54.8994 51.0615 54.8426 51.0293 54.7955 50.9864C54.7483 50.9437 54.7119 50.8914 54.689 50.8335L52.3334 45.3523C52.2862 45.2718 52.2681 45.1789 52.2818 45.0878C52.2956 44.9967 52.3406 44.9122 52.4098 44.8474V44.8577Z" fill="#57585A"/>
<path d="M52.7493 46.2801L45.0392 63.2491L54.5923 50.6074L52.7493 46.2801ZM42.4655 66.6388L52.3349 45.0026C52.3586 44.9493 52.3933 44.9011 52.437 44.8607C52.4808 44.8204 52.5327 44.7887 52.5896 44.7676C52.6465 44.7464 52.7073 44.7362 52.7684 44.7378C52.8296 44.7392 52.8898 44.7522 52.9455 44.776C53.0041 44.7972 53.0569 44.8303 53.1002 44.873C53.1436 44.9158 53.1764 44.967 53.1964 45.0232L55.552 50.4941C55.5825 50.5669 55.5926 50.6461 55.5811 50.7238C55.5696 50.8014 55.537 50.8749 55.4865 50.9371L43.2725 67.1024C43.2029 67.1826 43.1058 67.2372 42.998 67.2567C42.8902 67.2761 42.7786 67.2593 42.6826 67.2091C42.5866 67.1588 42.5123 67.0783 42.4726 66.9817C42.433 66.885 42.4304 66.7782 42.4655 66.6799V66.6388Z" fill="#57585A"/>
<path d="M22.8019 45.6918L20.0537 38.3972L20.937 38.0985L23.6852 45.4033L22.8019 45.6918Z" fill="#57585A"/>
<path d="M61.365 28.9491V35.2029C61.3703 35.2441 61.3703 35.2856 61.365 35.3266C61.3476 35.383 61.3184 35.4356 61.2792 35.4813C61.2401 35.5269 61.1917 35.5647 61.1369 35.5926C61.0821 35.6204 61.0219 35.6376 60.96 35.6432C60.8981 35.6489 60.8356 35.6428 60.7762 35.6254L46.4792 31.597C46.3968 31.5711 46.323 31.5251 46.2655 31.4636C46.208 31.402 46.1689 31.3271 46.1521 31.2467C46.1413 31.1889 46.1429 31.1298 46.1569 31.0727C46.171 31.0157 46.1972 30.9619 46.2339 30.9148C46.2706 30.8676 46.3171 30.8279 46.3705 30.7982C46.4239 30.7685 46.4832 30.7492 46.5447 30.7418L60.8416 28.5266H60.9506C61.0741 28.5293 61.1918 28.5768 61.2792 28.6593C61.3665 28.7419 61.4168 28.8531 61.4196 28.9697L61.365 28.9491ZM60.4817 34.626V29.4745L48.6712 31.3084L60.4817 34.626Z" fill="#57585A"/>
<path d="M20.7967 24.8597L30.4262 20.584C30.4978 20.5461 30.5785 20.5262 30.6607 20.5262C30.7428 20.5262 30.8235 20.5461 30.8951 20.584C31.0101 20.6447 31.0951 20.7459 31.1318 20.8654C31.1685 20.9849 31.154 21.1132 31.0914 21.2227L20.9385 38.4493C20.8977 38.5302 20.8324 38.5978 20.7508 38.6437C20.6693 38.6895 20.5752 38.7115 20.4805 38.7069C20.3493 38.7015 20.2256 38.6478 20.1359 38.5573C20.0462 38.4667 19.9976 38.3466 20.0006 38.2226L20.5132 25.2615C20.5135 25.1744 20.5404 25.0891 20.5907 25.016C20.641 24.9429 20.7125 24.8851 20.7967 24.8494V24.8597ZM29.521 22.047L21.5492 25.5809L21.1239 36.2856L29.521 22.047Z" fill="#57585A"/>
<path d="M30.5544 20.5727L40.3147 18.5121C40.4221 18.4824 40.5372 18.49 40.6392 18.5334C40.7412 18.5769 40.8234 18.6534 40.8709 18.7491L46.9997 30.9684C47.0453 31.0362 47.0695 31.1148 47.0695 31.1951C47.0695 31.2753 47.0453 31.354 46.9997 31.4217C46.9658 31.4696 46.922 31.5106 46.8711 31.5422C46.8202 31.5739 46.7632 31.5956 46.7033 31.6061C46.6433 31.6167 46.5818 31.6158 46.5222 31.6037C46.4626 31.5915 46.4062 31.5681 46.3563 31.5351L30.4127 21.3661C30.3143 21.3028 30.2444 21.2074 30.2164 21.0981C30.1905 20.9834 30.2138 20.8637 30.2813 20.7651C30.3487 20.6666 30.4548 20.5974 30.5762 20.5727H30.5544ZM40.2057 19.4394L31.8303 21.2115L45.4621 29.9072L40.2057 19.4394Z" fill="#57585A"/>
<path d="M52.8896 44.2706L60.1089 35.441L47.4041 31.8659L52.8896 44.2706ZM61.2431 35.4925L53.1295 45.4039C53.0539 45.4964 52.9428 45.5569 52.8203 45.5723C52.6978 45.5878 52.5737 45.5569 52.4752 45.4864C52.4126 45.4364 52.3639 45.3727 52.3334 45.3009L46.1609 31.3095C46.1138 31.2015 46.1137 31.0803 46.1607 30.9722C46.2076 30.8642 46.2979 30.778 46.4118 30.7325C46.5139 30.6971 46.6259 30.6971 46.728 30.7325L61.025 34.761C61.1431 34.7945 61.2425 34.8705 61.3017 34.9727C61.3609 35.0749 61.3751 35.195 61.3413 35.3071C61.3249 35.3755 61.2912 35.4391 61.2431 35.4925Z" fill="#57585A"/>
<path d="M20.5452 37.7796L33.1518 39.0159C33.2245 39.0223 33.2946 39.044 33.357 39.0797C33.4193 39.1154 33.4723 39.1641 33.5117 39.222C33.5485 39.274 33.574 39.3324 33.5868 39.3938C33.5996 39.4552 33.5994 39.5183 33.5862 39.5796C33.573 39.6409 33.5471 39.6991 33.51 39.751C33.4729 39.8027 33.4253 39.8471 33.37 39.8814L23.5551 45.9293L23.4243 45.9911C23.362 46.0123 23.2959 46.0217 23.2297 46.0186C23.1636 46.0156 23.0988 46.0002 23.039 45.9734C22.9792 45.9466 22.9256 45.9088 22.8813 45.8624C22.837 45.8159 22.8028 45.7616 22.7809 45.7025L20.0327 38.3978C20.0165 38.3335 20.0165 38.2664 20.0327 38.2021C20.0381 38.1401 20.0567 38.0798 20.0872 38.0247C20.1178 37.9698 20.1597 37.9211 20.2106 37.8817C20.2615 37.8422 20.3202 37.8129 20.3833 37.7954C20.4464 37.7778 20.5126 37.7724 20.5779 37.7796H20.5452ZM31.6796 39.8402L21.265 38.8099L23.5333 44.8474L31.6796 39.8402Z" fill="#57585A"/>
<path d="M40.7088 45.836L50.4037 44.9189L34.7981 40.4372L40.7088 45.836ZM52.8138 45.568L40.5779 46.7632C40.5103 46.7699 40.4419 46.7623 40.3778 46.7409C40.3136 46.7195 40.2554 46.685 40.2072 46.6396L32.7697 39.8293C32.6844 39.7466 32.6367 39.6357 32.6367 39.5203C32.6367 39.4048 32.6844 39.2939 32.7697 39.2112C32.8332 39.1491 32.9142 39.1054 33.003 39.0854C33.0919 39.0654 33.185 39.0696 33.2713 39.0978L52.901 44.7439C53.0171 44.7794 53.114 44.8563 53.171 44.9583C53.2281 45.0603 53.2407 45.1793 53.2064 45.2899C53.1768 45.3674 53.1238 45.435 53.0541 45.4844C52.9843 45.5338 52.9008 45.5629 52.8138 45.568Z" fill="#57585A"/>
<path d="M20.0543 38.0167L30.1962 20.8005C30.2347 20.7298 30.2904 20.6687 30.3586 20.6221C30.4268 20.5756 30.5057 20.545 30.5889 20.5326C30.7204 20.5181 30.8526 20.5533 30.9568 20.6304C31.061 20.7076 31.1286 20.8206 31.145 20.9448L33.5769 39.4282C33.5879 39.4618 33.5879 39.4977 33.5769 39.5313C33.5715 39.5933 33.553 39.6535 33.5224 39.7085C33.4918 39.7635 33.4499 39.8122 33.399 39.8516C33.3481 39.891 33.2894 39.9204 33.2263 39.9379C33.1632 39.9554 33.097 39.9608 33.0317 39.9537L20.4905 38.7173C20.4221 38.7061 20.356 38.6853 20.2942 38.6556C20.1792 38.5947 20.0942 38.4936 20.0575 38.3741C20.0208 38.2546 20.0353 38.1262 20.0979 38.0167H20.0543ZM30.3053 22.5005L21.2539 37.8519L32.4864 38.9543L30.3053 22.5005Z" fill="#57585A"/>
<path d="M32.5939 39.2315L30.162 21.0982C30.1473 21.0364 30.1466 20.9724 30.1597 20.9103C30.1729 20.8482 30.1996 20.7893 30.2383 20.7376C30.2745 20.6865 30.3211 20.6427 30.3753 20.6088C30.4296 20.5749 30.4905 20.5514 30.5544 20.5399C30.6184 20.5284 30.6841 20.529 30.7478 20.5418C30.8115 20.5545 30.8718 20.579 30.9254 20.614L46.869 30.783C46.9266 30.8167 46.9752 30.8625 47.0108 30.9169C47.0812 31.024 47.1046 31.1528 47.0761 31.2759C47.0476 31.399 46.9694 31.5068 46.8581 31.5763L33.3572 39.5508C33.299 39.5897 33.2316 39.6144 33.161 39.623C33.0287 39.635 32.8966 39.5992 32.7913 39.5227C32.686 39.4461 32.6154 39.3347 32.5939 39.2108V39.2315ZM31.2852 21.9534L33.4663 38.366L45.6476 31.154L31.2852 21.9534Z" fill="#57585A"/>
<path d="M70.8 21.9182L70.84 21.3182H76.32L91.88 48.1982L91.68 22.7182C91.5733 22.4515 91.4267 22.3048 91.24 22.2782L87.56 21.9582C87.5333 21.7982 87.52 21.5982 87.52 21.3582L95.12 21.3182C95.12 21.3448 95.1333 21.5448 95.16 21.9182L92.6 22.1982V49.3182H89.68L74.12 22.4382L74.32 48.4782L78.88 48.7182C78.88 48.7448 78.8667 48.9448 78.84 49.3182L70.8 49.3582L70.84 48.7982L72.92 48.5182C73.1867 48.4915 73.3467 48.3182 73.4 47.9982V22.6782C73.3467 22.3582 73.1867 22.1848 72.92 22.1582L70.8 21.9182ZM121.767 47.7982H121.647C119.247 48.9182 116.914 49.4782 114.647 49.4782C111.101 49.4782 109.221 48.0782 109.007 45.2782C108.981 45.0915 108.967 44.9182 108.967 44.7582C108.967 42.7048 110.314 41.3315 113.007 40.6382C114.607 40.2915 117.487 39.8782 121.647 39.3982V35.8782C121.647 34.7582 121.514 33.7982 121.247 32.9982C120.981 32.1982 120.687 31.6115 120.367 31.2382C120.047 30.8382 119.634 30.5315 119.127 30.3182C118.487 30.0515 117.767 29.9182 116.967 29.9182C116.194 29.9182 115.301 30.1182 114.287 30.5182C112.821 31.1315 111.514 31.9048 110.367 32.8382L110.207 35.9582L109.447 36.1582V31.3182L109.847 31.1582C111.927 30.2515 113.514 29.7048 114.607 29.5182C115.701 29.3315 116.501 29.2382 117.007 29.2382C117.514 29.2115 117.994 29.2115 118.447 29.2382C118.927 29.2648 119.541 29.3848 120.287 29.5982C121.034 29.8115 121.674 30.1182 122.207 30.5182C122.767 30.8915 123.247 31.4648 123.647 32.2382C124.047 33.0115 124.247 33.9315 124.247 34.9982V47.2382C124.247 48.0648 124.461 48.4782 124.887 48.4782L127.327 48.5982L127.287 49.1982C125.794 49.4115 124.461 49.5182 123.287 49.5182C122.967 49.4915 122.634 49.3315 122.287 49.0382C121.941 48.7182 121.767 48.3048 121.767 47.7982ZM115.367 48.8382C117.341 48.8382 119.434 48.1448 121.647 46.7582V40.1582C117.647 40.2915 115.127 40.5315 114.087 40.8782C113.074 41.1982 112.367 41.7182 111.967 42.4382C111.594 43.1315 111.407 43.8248 111.407 44.5182C111.407 44.6515 111.407 44.7848 111.407 44.9182C111.487 46.3048 111.901 47.3048 112.647 47.9182C113.394 48.5315 114.301 48.8382 115.367 48.8382ZM145.787 30.9582V34.1582C147.894 31.0648 149.96 29.4915 151.987 29.4382C152.147 29.4382 152.307 29.4382 152.467 29.4382L154.707 29.7182L153.667 32.1182C153.16 31.6115 152.507 31.3582 151.707 31.3582C149.76 31.3848 147.787 32.6782 145.787 35.2382V48.5182L149.187 48.7182C149.187 48.7448 149.174 48.9448 149.147 49.3182L140.747 49.3582C140.747 49.1182 140.76 48.9315 140.787 48.7982L142.867 48.5182C143.08 48.4915 143.187 48.3048 143.187 47.9582V30.5982C143.134 30.4115 143.054 30.3182 142.947 30.3182L140.547 30.2382L140.587 29.6782C142.027 29.4382 143.12 29.3182 143.867 29.3182C144.614 29.3182 145.12 29.4915 145.387 29.8382C145.654 30.1848 145.787 30.5582 145.787 30.9582ZM170.572 40.1182C170.572 45.8782 172.812 48.7582 177.292 48.7582C178.465 48.7582 179.719 48.6382 181.052 48.3982C182.385 48.1315 183.239 47.8915 183.612 47.6782L183.892 48.0782C183.279 48.4782 182.265 48.8115 180.852 49.0782C179.465 49.3448 178.185 49.4782 177.012 49.4782C175.865 49.4782 174.825 49.3582 173.892 49.1182C172.985 48.8782 172.052 48.4515 171.092 47.8382C170.132 47.2248 169.372 46.2648 168.812 44.9582C168.252 43.6515 167.972 42.0515 167.972 40.1582C167.972 36.6382 168.879 33.9448 170.692 32.0782C172.585 30.1315 174.785 29.1582 177.292 29.1582C179.799 29.1582 181.705 29.8515 183.012 31.2382C184.345 32.6248 185.012 34.5715 185.012 37.0782C185.012 37.6115 184.972 38.1848 184.892 38.7982H170.612C170.585 39.0915 170.572 39.5315 170.572 40.1182ZM182.652 36.7982C182.652 34.7982 182.212 33.1715 181.332 31.9182C180.452 30.6382 179.252 29.9982 177.732 29.9982C175.759 29.9982 174.092 30.8648 172.732 32.5982C171.639 33.9582 170.959 35.7715 170.692 38.0382H182.612C182.639 37.7448 182.652 37.3315 182.652 36.7982Z" fill="#57585A"/>
<path d="M122.69 54.725L122.705 54.5H126.365C127.715 54.5 128.795 54.895 129.605 55.685C130.425 56.465 130.835 57.74 130.835 59.51C130.835 61.26 130.55 62.57 129.98 63.44C129.48 64.2 128.7 64.68 127.64 64.88C127.17 64.96 126.62 65 125.99 65H125.705L122.69 65.015L122.705 64.805L123.485 64.7C123.585 64.69 123.645 64.625 123.665 64.505V55.025C123.645 54.895 123.585 54.825 123.485 54.815L122.69 54.725ZM126.29 54.725H124.685V64.775H125.915C126.395 64.775 126.8 64.75 127.13 64.7C127.47 64.64 127.82 64.51 128.18 64.31C128.55 64.1 128.84 63.815 129.05 63.455C129.56 62.605 129.815 61.315 129.815 59.585C129.815 57.785 129.46 56.51 128.75 55.76C128.1 55.07 127.28 54.725 126.29 54.725ZM144.037 61.55C144.037 63.71 144.877 64.79 146.557 64.79C146.997 64.79 147.467 64.745 147.967 64.655C148.467 64.555 148.787 64.465 148.927 64.385L149.032 64.535C148.802 64.685 148.422 64.81 147.892 64.91C147.372 65.01 146.892 65.06 146.452 65.06C146.022 65.06 145.632 65.015 145.282 64.925C144.942 64.835 144.592 64.675 144.232 64.445C143.872 64.215 143.587 63.855 143.377 63.365C143.167 62.875 143.062 62.275 143.062 61.565C143.062 60.245 143.402 59.235 144.082 58.535C144.792 57.805 145.617 57.44 146.557 57.44C147.497 57.44 148.212 57.7 148.702 58.22C149.202 58.74 149.452 59.47 149.452 60.41C149.452 60.61 149.437 60.825 149.407 61.055H144.052C144.042 61.165 144.037 61.33 144.037 61.55ZM148.567 60.305C148.567 59.555 148.402 58.945 148.072 58.475C147.742 57.995 147.292 57.755 146.722 57.755C145.982 57.755 145.357 58.08 144.847 58.73C144.437 59.24 144.182 59.92 144.082 60.77H148.552C148.562 60.66 148.567 60.505 148.567 60.305ZM161.607 65.015L161.622 64.805L162.402 64.7C162.492 64.69 162.537 64.62 162.537 64.49V57.995C162.517 57.915 162.487 57.875 162.447 57.875L161.532 57.845L161.547 57.635C162.177 57.545 162.602 57.5 162.822 57.5C163.222 57.5 163.447 57.675 163.497 58.025H163.512V58.34C164.332 57.78 165.117 57.485 165.867 57.455C166.597 57.455 167.152 57.6 167.532 57.89C167.702 58.02 167.852 58.225 167.982 58.505C168.122 58.775 168.192 59.1 168.192 59.48V64.7L169.317 64.775C169.317 64.785 169.312 64.86 169.302 65L166.302 65.015C166.302 64.925 166.307 64.855 166.317 64.805L167.097 64.7C167.177 64.69 167.217 64.62 167.217 64.49V59.855C167.217 59.455 167.162 59.115 167.052 58.835C166.952 58.555 166.837 58.35 166.707 58.22C166.577 58.09 166.417 57.99 166.227 57.92C166.007 57.84 165.777 57.8 165.537 57.8C164.937 57.81 164.262 58.045 163.512 58.505V64.7L164.637 64.775C164.637 64.785 164.632 64.86 164.622 65L161.607 65.015ZM184.457 64.715L185.042 64.685L185.087 64.835C185.077 64.835 185.007 64.85 184.877 64.88C184.577 64.95 184.242 64.985 183.872 64.985C183.532 64.965 183.222 64.91 182.942 64.82C182.662 64.72 182.402 64.52 182.162 64.22C181.922 63.91 181.802 63.515 181.802 63.035V57.77H181.037L181.157 57.65L181.817 57.515L181.937 56.075L182.777 56V57.5H184.592V57.77H182.777V62.78C182.777 63.54 182.937 64.055 183.257 64.325C183.577 64.585 183.977 64.715 184.457 64.715Z" fill="#57585A"/>
</svg>
